<?xml version="1.0" encoding="utf-8"?>
<!-- Generator: Adobe Illustrator 24.0.2, SVG Export Plug-In . SVG Version: 6.00 Build 0)  -->
<svg version="1.1"
	 id="svg1" inkscape:version="1.3.2 (091e20e, 2023-11-25, custom)" sodipodi:docname="login.svg" xmlns:inkscape="http://www.inkscape.org/namespaces/inkscape" xmlns:sodipodi="http://sodipodi.sourceforge.net/DTD/sodipodi-0.dtd" xmlns:svg="http://www.w3.org/2000/svg"
	 xmlns="http://www.w3.org/2000/svg" xmlns:xlink="http://www.w3.org/1999/xlink" x="0px" y="0px" viewBox="0 0 595.3 841.9"
	 style="enable-background:new 0 0 595.3 841.9;" xml:space="preserve">
<style type="text/css">
	.st0{opacity:0.7;}
	.st1{fill:#E1F0FF;}
	.st2{clip-path:url(#SVGID_2_);}
	.st3{fill:#161114;}
	.st4{fill:#8E3E30;}
	.st5{fill:#723021;}
	.st6{fill:#86C1E2;}
	.st7{fill:#D84848;}
	.st8{fill:#5E1D12;}
	.st9{fill:none;stroke:#FFFFFF;stroke-width:0.8356;stroke-linecap:round;stroke-miterlimit:7.5;}
	.st10{fill:#C43333;}
	.st11{fill:#FFFFFF;}
</style>
<g id="layer1" inkscape:groupmode="layer" inkscape:label="Layer 1">
	<g id="OBJECTS" transform="matrix(0.26458333,0,0,0.26458333,-70.274624,-42.891224)">
		<g id="g162" transform="translate(223.95129,123.81597)">
			<g id="g131" class="st0">
				<path id="path130" class="st1" d="M1858.5,2331.9c-199.2,198.6-436.5,293.8-712.1,285.2c-275.5-8.5-514.9-114.1-718.4-317
					c-207.6-207-308.2-436.2-302-687.7c6.5-251.5,102.8-470.1,289.2-656C542.4,829.6,693.9,739.9,869.8,687
					c175.9-52.8,352.9-60.2,530.9-22.2c177.9,38.1,330.5,120.5,457.7,247.3c190.7,190.1,289.4,423.5,295.7,700.4
					C2160.6,1889.2,2061.9,2129.1,1858.5,2331.9L1858.5,2331.9z"/>
			</g>
			<g id="g161">
				<g>
					<defs>
						<path id="SVGID_1_" d="M1858.5,2331.9c-199.2,198.6-436.5,293.8-712.1,285.2c-275.5-8.5-514.9-114.1-718.4-317
							c-207.6-207-308.2-436.2-302-687.7c6.5-251.5,102.8-470.1,289.2-656C542.4,829.6,693.9,739.9,869.8,687
							c175.9-52.8,352.9-60.2,530.9-22.2c177.9,38.1,330.5,120.5,457.7,247.3c190.7,190.1,289.4,423.5,295.7,700.4
							C2160.6,1889.2,2061.9,2129.1,1858.5,2331.9L1858.5,2331.9z"/>
					</defs>
					<clipPath id="SVGID_2_">
						<use xlink:href="#SVGID_1_"  style="overflow:visible;"/>
					</clipPath>
					<g id="g160" class="st2">
						<g id="g139">
							<path id="path131" class="st3" d="M1054.9,2054.9c0,0-55.2,93.3-232.2-1.2c-151.3-80.8-52.4-189.2-52.4-189.2
								s-103.7,66.3-145.8,16.8c-42.1-49.5,94.1-90.2,94.1-90.2s-263.4,41.7-273.6-114.6c-10.2-156.3,201.1-127.4,201.1-127.4
								s-268.6-64.1-200.4-260.1c68.2-195.9,241.8-129.9,241.8-129.9s-170.2-37-153.1-104.7c17.1-67.7,182.2,32.2,182.2,32.2
								s-143.6-150-4.1-299.8s337.1,102.8,337.1,102.8s-24.2-156,83.3-199c107.5-43,73.5,193.6,73.5,193.6s-14.2-211.7,150.7-180.9
								c165,30.8,62.4,293,62.4,293s83.9-246.5,259.9-139.9c176,106.6,41,343.1-37.4,382.7c-78.4,39.6,71.1-161.2,165.8-49.7
								c94.8,111.4-155.7,136.9-155.7,136.9s230.4-61.7,261.1,125.1c30.8,186.8-236.9,210.9-236.9,210.9s110.4-8.2,114.3,84.3
								c3.9,92.5-167.8,3.5-167.8,3.5s134.4,120.5,44.7,228.3c-89.8,107.8-238.1-54.1-238.1-54.1s71.8,109.6-23.8,147.8
								c-95.6,38.2-157.4-122.3-157.4-122.3L1054.9,2054.9z"/>
							<g id="g138">
								<g id="g133">
									<path id="path132" class="st4" d="M999.9,2098.8c60.2-51.2,4.3-344.6,4.3-344.6h341c0,0-55.9,293.4,4.3,344.6
										c60.2,51.2,515.7,46.6,472.8,540.1H527.1C484.1,2145.4,939.7,2150,999.9,2098.8L999.9,2098.8z"/>
									<path id="path133" class="st5" d="M1017.3,2069.5c29.8-90.3-13.1-315.3-13.1-315.3h341c0,0-23,121-23.6,221.1
										C1235.7,2042.7,1127.9,2069.4,1017.3,2069.5z"/>
								</g>
								<g id="g137">
									<path id="path134" class="st6" d="M908.1,2112.8c0,0,48.2,161.6,266.6,162.9c218.4-1.3,266.6-162.9,266.6-162.9
										c494.2,116.4,388.3,526.2,388.3,526.2l-652.3,4.6v0l-2.6,0l-2.6,0v0l-652.3-4.6C519.8,2639,413.9,2229.2,908.1,2112.8z"/>
									<g id="g136">
										<path id="path135" class="st7" d="M1001,2642.9L835.3,2122c0,0-335,45.8-363.8,517.4L1001,2642.9z"/>
										<path id="path136" class="st7" d="M1354.2,2642.9l165.8-520.9c0,0,313.6,45.8,342.5,517.4L1354.2,2642.9z"/>
									</g>
								</g>
							</g>
						</g>
						<g id="g159">
							<g id="g150">
								<g id="g146">
									<g id="g142">
										<path id="path139" class="st5" d="M1567.4,1616.8c-17.4,63.6-66.5,119.9-105.1,109.4c-38.6-10.5-52-83.9-34.6-147.5
											c17.4-63.6,59.2-93.2,97.7-82.7C1564.1,1506.5,1584.9,1553.2,1567.4,1616.8L1567.4,1616.8z"/>
										<g id="g141">
											<g id="g140">
												<path id="path140" class="st8" d="M1560,1589.7c-2.2-8-4.7-15.8-7.5-23.2c-1.5-3.7-3.1-7.2-4.9-10.3
													c-1.8-3-4.2-5.7-5.8-6.1c-1.2-0.2-1.4,0-3.7,1.5c-0.4,0.4-1.4,1.1-1.2,1.1c-0.6,0.7-1.7,1.6-1.9,2.1
													c-0.3,0.5-0.5,0.8-0.9,1.4l-1.3,2c-3.3,5.8-5.6,13.1-7.8,20.5c-2.2,7.4-4,15-5.6,22.8c-1.8,7.7-3.3,15.5-4.7,23.4
													l-4.3,23.7l-4.2,23.8l-3-6.2c1.5,1.2,2.5,2.2,3.7,3.4c1.1,1.1,2.2,2.3,3.2,3.6c2,2.5,3.9,5.3,5.4,8.6
													c1.4,3.3,2.3,7.3,1.5,11.3c-0.9,4-3.3,7.3-5.8,9.5c-5.2,4.5-11.1,6.2-16.7,7.5c-5.7,1.4-11.4,1.8-17,2.2
													c5.3-1.9,10.6-4.1,15.5-6.5c2.4-1.2,4.8-2.6,6.9-4.1c2.2-1.4,4.1-3.1,5.4-4.9c2.8-3.7,2.3-6.5,0.2-10
													c-1.1-1.7-2.7-3.4-4.5-5c-0.9-0.8-1.8-1.5-2.8-2.3c-0.9-0.7-2.1-1.5-2.9-1.9l-3-1.6l0-4.6c0.1-8.4,0.1-16.6,0.7-24.8
													c0.6-8.2,1.2-16.5,2.4-24.7c1.2-8.2,2.5-16.4,4.2-24.6c1.9-8.2,4.1-16.3,6.8-24.5c2.8-8.1,6.4-16.2,11.8-24.1
													c1.4-1.9,3-4,5.4-6.2c1.1-1.1,1.7-1.4,2.6-2.1c1.7-1.3,2.5-1.6,3.8-2.4c2.6-1.2,5.4-2.5,9.1-2.7c3.6-0.2,7.5,1,10.3,3
													c5.4,4.2,7.1,9,8.7,13.3c1.4,4.4,2.2,8.7,2.6,12.9C1561.5,1573.1,1561.2,1581.5,1560,1589.7L1560,1589.7z"/>
											</g>
											<path id="path141" class="st9" d="M1487.5,1694.5c56.7,0,102.7,45.8,102.7,102.4s-46,102.4-102.7,102.4
												c-56.7,0-102.7-45.8-102.7-102.4"/>
										</g>
									</g>
									<g id="g145">
										<path id="path142" class="st5" d="M781.9,1616.8c17.4,63.6,66.5,119.9,105,109.4c38.6-10.5,52-83.9,34.6-147.5
											s-59.2-93.2-97.7-82.7C785.3,1506.5,764.5,1553.2,781.9,1616.8z"/>
										<g id="g144">
											<g id="g143">
												<path id="path143" class="st8" d="M789.3,1589.7c-1.2-8.3-1.5-16.6-0.6-25.1c0.4-4.3,1.1-8.6,2.6-12.9
													c1.6-4.3,3.3-9.1,8.7-13.3c2.7-2,6.7-3.2,10.3-3c3.7,0.1,6.5,1.4,9.1,2.7c1.3,0.8,2.1,1.1,3.8,2.4
													c0.9,0.7,1.5,1,2.6,2.1c2.4,2.2,3.9,4.2,5.4,6.2c5.4,8,9,16,11.8,24.1c2.7,8.2,4.9,16.3,6.8,24.5
													c1.6,8.2,3,16.4,4.2,24.6c1.1,8.2,1.7,16.5,2.4,24.7c0.6,8.3,0.6,16.5,0.7,24.8l0,4.6l-3,1.6c-0.8,0.4-1.9,1.2-2.9,1.9
													c-1,0.7-1.9,1.5-2.8,2.3c-1.8,1.6-3.3,3.3-4.5,5c-2.1,3.5-2.6,6.3,0.2,10c1.3,1.8,3.2,3.4,5.4,4.9
													c2.1,1.5,4.5,2.9,6.9,4.1c4.9,2.4,10.1,4.6,15.5,6.5c-5.7-0.4-11.4-0.8-17-2.2c-5.6-1.4-11.5-3.1-16.7-7.5
													c-2.6-2.2-5-5.5-5.8-9.5c-0.8-4,0.1-8,1.5-11.3c1.4-3.3,3.3-6.1,5.4-8.6c1-1.3,2.1-2.4,3.2-3.6c1.2-1.2,2.2-2.2,3.7-3.4
													l-3,6.2l-4.2-23.8l-4.3-23.7c-1.4-7.9-2.9-15.7-4.7-23.4c-1.6-7.7-3.3-15.4-5.6-22.8c-2.2-7.3-4.5-14.7-7.8-20.5l-1.3-2
													c-0.4-0.6-0.6-0.9-0.9-1.4c-0.2-0.5-1.3-1.4-1.9-2.1c0.2,0-0.8-0.7-1.2-1.1c-2.3-1.5-2.5-1.8-3.7-1.5
													c-1.5,0.4-4,3-5.8,6.1c-1.8,3.1-3.4,6.6-4.9,10.3C794,1573.9,791.6,1581.7,789.3,1589.7L789.3,1589.7z"/>
											</g>
											<path id="path144" class="st9" d="M860.5,1694.5c-56.7,0-102.7,45.8-102.7,102.4s46,102.4,102.7,102.4
												c56.7,0,102.7-45.8,102.7-102.4"/>
										</g>
									</g>
									<path id="path145" class="st4" d="M1494.5,1502.8c0,232.7-144.3,470.3-322.3,470.3s-322.3-237.6-322.3-470.3
										s144.3-372.5,322.3-372.5S1494.5,1270.1,1494.5,1502.8z"/>
								</g>
								<g id="g149">
									<path id="path146" class="st7" d="M852.4,1610.7c0,0-23.3-358.1,307.2-372.4c331.5-14.4,324.3,384.4,324.3,384.4
										s155-560.4-284.7-574.8C741.8,1032.9,852.4,1610.7,852.4,1610.7z"/>
									<g id="g148">
										<path id="path147" class="st10" d="M912,1370.6c-19.4-26.1-35.4-53.9-49-82.8c-43.1,153.1-10.6,322.9-10.6,322.9
											S843.9,1477.7,912,1370.6z"/>
										<path id="path148" class="st10" d="M1471.3,1209.3c-8.1,59.4-24.2,117.3-45.2,173.9c60.1,109,57.8,239.5,57.8,239.5
											S1551.1,1379.4,1471.3,1209.3z"/>
									</g>
								</g>
							</g>
							<g id="g158">
								<g id="g154">
									<g id="g151">
										<path id="path150" class="st8" d="M1155.2,1535.1c3.4,6.9,6,14.2,8,21.5c2.2,7.4,3.6,14.9,4.8,22.6
											c1.1,7.7,1.6,15.4,1.8,23.2c-0.1,7.8-0.5,15.6-1.5,23.5c-1.2,7.8-3,15.6-5.3,23.3c-2.2,7.7-5.8,15-9.5,22.2
											c-2,3.5-4,7.1-6.4,10.4c-2.3,3.3-5,6.4-7.6,9.5c-2.8,3-5.6,5.9-8.6,8.6c-3,2.7-6.4,5-9.6,7.4l-1.1-12.7
											c10,6.3,19.9,13.1,29.7,19.8c9.7,6.9,19.4,13.8,28.8,21.4c-11.4-3.9-22.4-8.5-33.4-13.1c-10.9-4.8-21.8-9.5-32.5-14.7
											l-8.9-4.3l7.8-8.4c2.4-2.6,5-4.9,7.1-7.6c2.4-2.5,4.5-5.2,6.5-8c2-2.8,4-5.6,5.6-8.6c1.8-2.9,3.5-5.9,5.1-8.9
											c1.5-3.1,3-6.2,4.2-9.4l3.6-9.7c2.2-6.6,3.9-13.4,5.4-20.3c1.6-6.9,2.6-14,3.4-21.1c1-7.1,1.6-14.4,2-21.7
											c0.5-7.3,0.6-14.7,0.8-22.1C1155.3,1550.3,1155.4,1542.8,1155.2,1535.1L1155.2,1535.1z"/>
									</g>
									<path id="path151" class="st11" d="M1271.8,1799.4c0,0-117.8,91-210.4-10.2"/>
									<g id="g152">
										<path id="path152" class="st3" d="M1113.8,1499.8c0,0-3.3-2-9-5.4c-5.7-3.3-13.5-7.9-22.7-12.6
											c-9.2-4.7-19.8-9.5-30.8-12.7c-5.5-1.5-11.1-2.9-16.7-3.5c-5.6-0.5-11.2-1-16.7-0.3c-5.6,0.2-11.1,1.5-16.6,2.8
											c-5.5,1.7-11,3.5-16.4,5.9c-5.4,2.3-10.6,5-15.6,7.7c-4.9,2.9-9.8,5.5-14.2,8.4c-4.6,2.6-8.6,5.4-12.3,7.8
											c-3.8,2.3-7.2,4.4-9.8,6.2c-5.5,3.6-9.1,5.4-9.1,5.4s0.9-3.8,3.3-10.1c1.1-3.2,2.6-7,4.8-11.1c2.1-4.2,4.6-8.9,8-13.6
											c3.1-4.9,7.2-9.8,11.8-14.9c4.8-4.9,10.1-9.9,16.5-14.3c6.3-4.5,13.5-8.5,21.4-11.6c8-3,16.6-5.1,25.5-5.7
											c8.8-0.7,17.8,0.1,26.2,2c8.5,1.8,16.1,5.1,23.1,8.7c13.9,7.5,24.2,17.3,31.6,26.6c7.4,9.2,11.8,17.9,14.4,24.2
											C1113.1,1495.9,1113.8,1499.8,1113.8,1499.8L1113.8,1499.8z"/>
									</g>
									<g id="g153">
										<path id="path153" class="st3" d="M1403.5,1514.2c0,0-3-2.4-8.2-6.5c-5.2-4-12.4-9.6-21-15.5c-8.6-6-18.5-12.2-29.1-17.2
											c-10.7-4.9-21.9-8.7-33.3-9.8c-5.7-1-11.5-0.6-17.3-0.6c-2.9,0.3-5.9,0.6-8.7,0.9c-2.9,0.5-5.8,1-8.7,1.5
											c-5.8,1.2-11.4,2.8-16.9,4.3c-5.4,1.9-10.8,3.4-15.6,5.4c-5,1.7-9.6,3.5-13.7,5.2c-4.2,1.6-7.9,2.9-10.9,4.3
											c-6.1,2.5-10,3.7-10,3.7s1.6-3.6,5.2-9.3c1.7-2.9,4-6.4,7-10.1c2.9-3.8,6.4-7.8,10.6-11.9c4.1-4.3,9.2-8.2,14.7-12.3
											c5.8-3.8,12.1-7.6,19.3-10.7c7.2-3,15.1-5.5,23.5-6.8c8.4-1.2,17.3-1.6,26-0.5c8.7,1.1,17.3,3.3,25.1,6.7
											c7.9,3.1,15,7.6,21.2,12.2c12.5,9.4,21.5,20.5,27.6,30.7c6.2,10.1,9.5,19.4,11.3,25.9
											C1403.3,1510.2,1403.5,1514.2,1403.5,1514.2L1403.5,1514.2z"/>
									</g>
								</g>
								<g id="g157">
									<g id="g155">
										<path id="path154" class="st3" d="M1260.5,1633.5c0,0-1-3.2-1.9-8.9c-0.9-5.7-1.9-14-1.2-24.2c0.4-5.1,1-10.6,2.6-16.4
											c1.6-5.8,3.6-12,7.6-17.8c3.5-6,9.1-11.4,15.7-15.5c3.4-1.7,7.1-3.3,10.8-4.4l5.7-1.1l2.8-0.5l0.7-0.1l1.5,0l1.2,0
											l4.9,0.2c0.8,0.1,1.6,0,2.5,0.2l3.2,0.7c2.1,0.5,4.2,1.1,6.2,1.7c2,0.7,3.6,1.8,5.3,2.6c7.1,3.5,11.9,9.6,16,15
											c1.7,2.9,3.6,5.7,4.8,8.7c1.1,3,2.5,5.8,3.3,8.6c1.9,5.6,3,11.1,3.8,16.1c1.6,10,1.4,18.4,1.1,24.1c-0.4,5.8-1,9.1-1,9.1
											s-0.8-3.2-2.2-8.7c-1.5-5.5-3.7-13.3-6.9-22.2c-1.7-4.4-3.7-9.1-5.9-13.8c-2.3-4.7-5.3-9.2-8.5-13.5
											c-3.5-3.9-7.4-7.6-11.9-9.6c-1.1-0.5-2.2-1.3-3.3-1.6c-1.1-0.2-2.1-0.5-3.1-0.8l-1.6-0.5c-0.7-0.1-1.6,0-2.4-0.1l-4.9-0.1
											l-1.2-0.1l-0.3,0l-0.2,0h-0.1c-0.2,0,1.6,0,0.8,0l-0.5,0.1l-2,0.3l-3.9,0.6c-2.5,0.7-4.9,1.7-7.2,2.6
											c-4.2,2.7-8.6,5.5-11.5,9.9c-6.4,8.3-10.1,18.7-12.7,27.6c-2.4,9.1-3.8,17.1-4.7,22.7
											C1260.8,1630.2,1260.5,1633.5,1260.5,1633.5L1260.5,1633.5z"/>
									</g>
									<g id="g156">
										<path id="path155" class="st3" d="M974,1633.5c0,0-1-3.2-1.9-8.9c-0.9-5.7-1.9-14-1.2-24.2c0.4-5.1,1-10.6,2.6-16.4
											c1.6-5.8,3.6-12,7.6-17.8c3.5-6,9.1-11.4,15.7-15.5c3.4-1.7,7.1-3.3,10.8-4.4l5.7-1.1l2.8-0.5l0.7-0.1l1.5,0l1.2,0
											l4.9,0.2c0.8,0.1,1.6,0,2.5,0.2l3.2,0.7c2.1,0.5,4.2,1.1,6.2,1.7c2,0.7,3.6,1.8,5.3,2.6c7.1,3.5,11.9,9.6,16,15
											c1.7,2.9,3.6,5.7,4.8,8.7c1.1,3,2.5,5.8,3.3,8.6c1.9,5.6,3,11.1,3.8,16.1c1.6,10,1.4,18.4,1.1,24.1c-0.4,5.8-1,9.1-1,9.1
											s-0.8-3.2-2.2-8.7c-1.5-5.5-3.7-13.3-6.9-22.2c-1.7-4.4-3.7-9.1-5.9-13.8c-2.3-4.7-5.3-9.2-8.5-13.5
											c-3.5-3.9-7.4-7.6-11.9-9.6c-1.1-0.5-2.2-1.3-3.3-1.6c-1.1-0.2-2.1-0.5-3.1-0.8l-1.6-0.5c-0.7-0.1-1.6,0-2.4-0.1l-4.9-0.1
											l-1.2-0.1l-0.3,0l-0.2,0h-0.1c-0.2,0,1.6,0,0.8,0l-0.5,0.1l-2,0.3l-3.9,0.6c-2.5,0.7-4.9,1.7-7.2,2.6
											c-4.2,2.7-8.6,5.5-11.5,9.9c-6.4,8.3-10.1,18.7-12.7,27.6c-2.4,9.1-3.8,17.1-4.7,22.7C974.4,1630.2,974,1633.5,974,1633.5
											L974,1633.5z"/>
									</g>
								</g>
							</g>
						</g>
					</g>
				</g>
			</g>
		</g>
	</g>
</g>
</svg>
